{"title":"The Heat 2013 TS XViD-BERRY","uid":8655337,"size":448485406,"categoryP":"video","categoryS":"movies","magnet":"?xt=urn:btih:dfad9b6e60aa3e01c7bdd0773decd24b28a18da7&amp;dn=The+Heat+2013+TS+XViD-BERRY&amp;tr=udp%3A%2F%2Ftracker.openbittorrent.com%3A80&amp;tr=udp%3A%2F%2Fopen.demonii.com%3A1337&amp;tr=udp%3A%2F%2Ftracker.coppersurfer.tk%3A6969&amp;tr=udp%3A%2F%2Fexodus.desync.com%3A6969","seeders":2,"leechers":0,"uploader":"srkfan","files":2,"time":1373204550,"description":" &lt;a href=&quot;http://img600.imageshack.us/img600/7572/9yyw.jpg&quot; rel=&quot;nofollow&quot; target=&quot;_NEW&quot;&gt;http://img600.imageshack.us/img600/7572/9yyw.jpg&lt;/a&gt;\n\nThe Heat 2013 TS BERRY 480p\n  &lt;a href=&quot;\nhttp://www.imdb.com/title/tt2404463/&quot; rel=&quot;nofollow&quot; target=&quot;_NEW&quot;&gt;\nhttp://www.imdb.com/title/tt2404463/&lt;/a&gt;\n\nGeneral\nFormat                                   : Matroska\nFormat version                           : Version 1\nFile size                                : 428 MiB\nDuration                                 : 1h 50mn\nOverall bit rate                         : 543 Kbps\nWriting application                      : DivXMKVMux 3.4.1.0004\nWriting library                          : libDivXMediaFormat 3.4.1.0004\n\nVideo\nID                                       : 1\nFormat                                   : AVC\nFormat/Info                              : Advanced Video Codec\nFormat profile                           : &lt;a class=&quot;__cf_email__&quot; href=&quot;/cdn-cgi/l/email-protection&quot; data-cfemail=&quot;1c54757b745c5028322c&quot;&gt;[email&amp;#160;protected]&lt;/a&gt;&lt;script cf-hash='f9e31' type=&quot;text/javascript&quot;&gt;\n/* &lt;![CDATA[ */!function(){try{var t=&quot;currentScript&quot;in document?document.currentScript:function(){for(var t=document.getElementsByTagName(&quot;script&quot;),e=t.length;e--;)if(t[e].getAttribute(&quot;cf-hash&quot;))return t[e]}();if(t&amp;&amp;t.previousSibling){var e,r,n,i,c=t.previousSibling,a=c.getAttribute(&quot;data-cfemail&quot;);if(a){for(e=&quot;&quot;,r=parseInt(a.substr(0,2),16),n=2;a.length-n;n+=2)i=parseInt(a.substr(n,2),16)^r,e+=String.fromCharCode(i);e=document.createTextNode(e),c.parentNode.replaceChild(e,c)}}}catch(u){}}();/* ]]&gt; */&lt;/script&gt;\nMultiView_Count                          : 2\nFormat settings, CABAC                   : Yes\nFormat settings, ReFrames                : 4 frames\nCodec ID                                 : V_MPEG4/ISO/AVC\nDuration                                 : 1h 50mn\nBit rate                                 : 404 Kbps\nWidth                                    : 720 pixels\nHeight                                   : 280 pixels\nDisplay aspect ratio                     : 2.571\nFrame rate mode                          : Constant\nFrame rate                               : 50.000 fps\nColor space                              : YUV\nChroma subsampling                       : 4:2:0\nBit depth                                : 8 bits\nScan type                                : Progressive\nBits/(Pixel*Frame)                       : 0.040\nStream size                              : 318 MiB (74%)\nLanguage                                 : English\nDefault                                  : Yes\nForced                                   : No\n\nAudio\nID                                       : 2\nFormat                                   : MPEG Audio\nFormat version                           : Version 1\nFormat profile                           : Layer 3\nCodec ID                                 : A_MPEG/L3\nCodec ID/Hint                            : MP3\nDuration                                 : 1h 50mn\nBit rate mode                            : Constant\nBit rate                                 : 128 Kbps\nChannel(s)                               : 2 channels\nSampling rate                            : 48.0 KHz\nCompression mode                         : Lossy\nStream size                              : 101 MiB (24%)\nLanguage                                 : English\nDefault                                  : Yes\nForced                                   : No\n &lt;a href=&quot;\nhttp://img7.imageshack.us/img7/8201/0p0q.png&quot; rel=&quot;nofollow&quot; target=&quot;_NEW&quot;&gt;\nhttp://img7.imageshack.us/img7/8201/0p0q.png&lt;/a&gt; &lt;a href=&quot;\nhttp://img801.imageshack.us/img801/6075/h5vq.png&quot; rel=&quot;nofollow&quot; target=&quot;_NEW&quot;&gt;\nhttp://img801.imageshack.us/img801/6075/h5vq.png&lt;/a&gt; &lt;a href=&quot;\nhttp://img826.imageshack.us/img826/2804/9hw.png&quot; rel=&quot;nofollow&quot; target=&quot;_NEW&quot;&gt;\nhttp://img826.imageshack.us/img826/2804/9hw.png&lt;/a&gt; &lt;a href=&quot;\nhttp://img843.imageshack.us/img843/2158/x1jw.png&quot; rel=&quot;nofollow&quot; target=&quot;_NEW&quot;&gt;\nhttp://img843.imageshack.us/img843/2158/x1jw.png&lt;/a&gt; &lt;a href=&quot;\nhttp://img833.imageshack.us/img833/7110/xpz.png&quot; rel=&quot;nofollow&quot; target=&quot;_NEW&quot;&gt;\nhttp://img833.imageshack.us/img833/7110/xpz.png&lt;/a&gt;","torrent":{"xt":"urn:btih:dfad9b6e60aa3e01c7bdd0773decd24b28a18da7","amp;dn":"The+Heat+2013+TS+XViD-BERRY","amp;tr":["udp%3A%2F%2Ftracker.openbittorrent.com%3A80","udp%3A%2F%2Fopen.demonii.com%3A1337","udp%3A%2F%2Ftracker.coppersurfer.tk%3A6969","udp%3A%2F%2Fexodus.desync.com%3A6969"],"infoHash":"dfad9b6e60aa3e01c7bdd0773decd24b28a18da7","infoHashBuffer":{"type":"Buffer","data":[223,173,155,110,96,170,62,1,199,189,208,119,61,236,210,75,40,161,141,167]},"announce":[],"urlList":[]}}